<svg width="16" height="16" viewBox="0 0 16 16" fill="none" xmlns="http://www.w3.org/2000/svg">
<path d="M13.5 7V4" stroke="black" stroke-linecap="round" stroke-linejoin="round"/>
<path d="M15 5.5H12" stroke="black" stroke-linecap="round" stroke-linejoin="round"/>
<path d="M10.5 1.5V3.5" stroke="black" stroke-linecap="round" stroke-linejoin="round"/>
<path d="M11.5 2.5H9.5" stroke="black" stroke-linecap="round" stroke-linejoin="round"/>
<path d="M13.5436 9.53755C12.5619 9.81283 11.5247 9.82185 10.5384 9.56369C9.55205 9.30553 8.65223 8.78949 7.93131 8.06857C7.21039 7.34765 6.69436 6.44783 6.43619 5.46152C6.17803 4.47522 6.18706 3.43797 6.46233 2.4563C5.4945 2.72568 4.61413 3.24394 3.90892 3.95944C3.20371 4.67495 2.69827 5.56274 2.44295 6.53438C2.18763 7.50602 2.19133 8.52759 2.45369 9.49736C2.71605 10.4671 3.22791 11.3512 3.93829 12.0616C4.64866 12.772 5.53276 13.2838 6.50253 13.5462C7.47229 13.8086 8.49387 13.8123 9.4655 13.5569C10.4371 13.3016 11.3249 12.7962 12.0404 12.091C12.7559 11.3858 13.2742 10.5054 13.5436 9.53755Z" stroke="black" stroke-linecap="round" stroke-linejoin="round"/>
</svg>
